# xmcd
# 
# Track frame offsets:
#     150
#     18890
#     49832
#     79032
#     97335
#     119217
#     147895
# 
# Disc length: 2624
# 
# Revision: 27
# Processed by: cddbd v1.5.2PL0 Copyright (c) Steve Scherf et al.
# Submitted via: BonkEnc v1.0.8
# 
DISCID=5f0a3e07
DTITLE=Supertramp - Even In The Quietest Moments...
DYEAR=1977
DGENRE=Progressive Rock
TTITLE0=Give A Little Bit
TTITLE1=Lover Boy
TTITLE2=Even In The Quietest Moments
TTITLE3=Downstream
TTITLE4=Babaji
TTITLE5=From Now On
TTITLE6=Fool's Overture
EXTD=
EXTT0=
EXTT1=
EXTT2=
EXTT3=
EXTT4=
EXTT5=
EXTT6=
PLAYORDER=
